<svg version="1.1" id="Layer_1" xmlns="http://www.w3.org/2000/svg" x="0px" y="0px" viewBox="0 0 206.1 186.4" style="enable-background:new 0 0 206.1 186.4;" xmlns:xlink="http://www.w3.org/1999/xlink" xml:space="preserve" data-inject-url="https://cdn.shopify.com/s/files/1/0014/1962/t/53/assets/logo-persona-4.svg?v=2935164221196349294" class="injectable">

<g id="NZmrqV_2_">
	<g>
		<g>
			<path class="st0" d="M16.8,185c-1.1-1.1-0.9-2,0.6-2.6c0.7-0.2,1.3-0.5,1.9-0.8c2.3-1.1,3.2-2.7,2.9-5.3c-0.3-2.6-0.6-5.3-1-7.9     c-1.2-8.1-2.5-16.1-3.8-24.2c-1.2-7.5-2.4-15-3.6-22.5c-1-6.5-2.1-13-3.1-19.6c-0.3-1.9-1.4-2.7-3.3-2.3     c-1.9,0.4-3.6,1.4-5.2,2.5c-0.7,0.5-1.5,0.4-2-0.1c-0.5-0.7-0.4-1.5,0.4-2.1C9.3,93.6,17.9,87,26.3,80.3     c4.1-3.2,8.1-6.5,12.5-9.3c5-3.1,10.1-5.8,15.8-7.3c2.9-0.7,5.8-1.1,8.8-0.5c4.7,0.9,7.7,3.7,9.6,8c1.7,3.9,2.6,8.1,3,12.4     c1.1,12.6-3.5,23.1-12,32.1c-5.3,5.6-11.5,10-18,14c-4.9,3-9.8,5.8-15,8.1c-0.1,0-0.1,0.1-0.2,0.2c0.6,3.2,1.1,6.5,1.7,9.7     c1.1,6.6,2.3,13.2,3.4,19.8c0.3,2.1,0.4,4.2,0.8,6.3c0.4,2.3,1.4,3.1,3.7,3c1.1-0.1,2.3-0.2,3.4-0.4c1.3-0.2,2.2,0.8,1.7,2     c-0.1,0.4-0.7,0.7-1.2,0.8c-2.3,0.6-4.7,1-7.1,1.6c-6.4,1.4-12.9,2.8-19.3,4.2c-0.1,0-0.3,0.1-0.4,0.2     C17.4,185,17.1,185,16.8,185z M29.3,132.9c1.4-0.7,2.8-1.2,4-1.9c6.3-3.5,12-7.7,17.3-12.5c3-2.7,5.4-5.8,7-9.5     c1.6-3.9,2.1-7.9,1.7-12.1c-0.4-4.2-1.2-8.4-3.1-12.2c-1.2-2.3-2.7-4.2-5.1-5.5c-3.1-1.6-6.4-1.3-9.6-0.3     c-3.9,1.3-7.4,3.4-10.7,5.9c-2.6,2-5,4.1-7.6,6c-1.2,0.8-1.5,1.6-1.2,3c2,10.6,3.9,21.3,5.9,31.9C28.3,128,28.8,130.4,29.3,132.9     z"></path>
		</g>
		<g>
			<path class="st0" d="M178.2,107.9c1.1-0.3,1.9-0.6,2.8-0.8c1.2-0.3,2.3-0.7,3.5-1c0.9-0.2,1.6,0.1,1.8,0.8     c0.2,0.8-0.2,1.4-1.1,1.8c-3.2,1.1-6.3,2.2-9.5,3.3c-7.7,2.7-15.4,5.4-23.1,8c-2.3,0.8-4.7,1.5-7,2.3c-0.3,0.1-0.5,0.1-0.8,0.1     c-0.6,0-1.1-0.2-1.3-0.8c-0.2-0.6,0-1.2,0.6-1.5c0.8-0.4,1.5-0.8,2.3-1.2c1.1-0.5,2.2-1,3.3-1.4c2-0.7,2.8-2.1,2.9-4.1     c0.1-1.2-0.1-2.3-0.5-3.4c-3.2-7.7-6.4-15.5-9.7-23.3c-0.1-0.2-0.2-0.4-0.3-0.6c-0.7-1.4-1.1-1.6-2.5-0.9     c-11.3,5.4-22.5,10.7-33.8,16.2c-10.2,4.9-20.3,9.9-30.4,14.8c-0.2,0.1-0.3,0.1-0.5,0.2c-0.6,0.3-1.1,0.2-1.6-0.2     c-0.5-0.4-0.5-0.9-0.2-1.4c3.4-8.3,6.8-16.6,10.1-25c9.5-23.5,19-47.1,28.5-70.6c0.9-2.1,1.7-4.3,2.6-6.4     c0.1-0.3,0.4-0.6,0.6-0.9c4-3.3,8-6.6,12-9.9c1.3-1.1,2.9-0.7,3.5,0.9c9.3,21.4,18.5,42.7,27.8,64.1c0.7,1.7,1.8,2.1,3.6,1.3     c4-1.9,8.1-3.8,12.1-5.7c2.4-1.1,4.8-2.2,7.1-3.3c1-0.5,1.5-0.3,1.8,0.8c0.3,0.8,0.5,1.5,0.7,2.3c0.3,0.9,0,1.5-0.8,1.9     c-4.8,2.3-9.6,4.6-14.4,6.9c-1.7,0.8-3.4,1.6-5.1,2.5c-1.4,0.7-1.7,1.6-1.1,3c3.7,8.9,7.4,17.9,11.1,26.8     c0.6,1.4,1.4,2.6,2.6,3.4C176.6,107.3,177.5,107.6,178.2,107.9z M138.1,77.3c-0.1-0.2-0.1-0.5-0.2-0.9     c-5.9-15.5-11.9-31-17.8-46.6c-0.3-0.7-0.6-1.3-1.5-1.3c-0.8,0-1.1,0.6-1.3,1.3c-4.3,12-8.7,23.9-13.1,35.9     c-4,11.1-8.1,22.2-12.2,33.4c-0.2,0.6-0.2,1.2,0.3,1.7c0.5,0.5,1.1,0.4,1.6,0.1c0.2-0.1,0.3-0.1,0.5-0.2     c13.8-6.6,27.7-13.3,41.5-19.9C137.4,80.1,138,79,138.1,77.3z"></path>
		</g>
		<g>
			<path class="st0" d="M159.8,132.2c-0.8-2.2-1.5-4.5-2.3-6.6c-0.5-1.3-1.6-1.9-3-1.7c-2.4,0.3-4.5,1.2-6.4,2.7     c-1.2,1-1.2,1.9-0.2,3.1c0.5,0.6,0.9,1.1,1.3,1.8c0.6,0.9,0.5,2-0.4,2.7c-1.5,1.2-3.3,1.8-5.3,1.4c-1-0.2-1.7-0.8-1.9-1.8     c-0.5-1.8-0.3-3.5,1-5.1c2.2-2.7,5-4.5,8.2-5.8c2.2-0.9,4.4-1.6,6.8-1.6c2.8,0,4.9,1.2,6,3.8c1.1,2.4,1.8,4.9,2.7,7.4     c1.3,3.6,2.5,7.2,3.7,10.8c0.2,0.4,0.3,0.9,0.6,1.3c0.4,0.6,0.9,1.1,1.7,1.1c0.8,0,1.3-0.5,1.6-1.1c0.1-0.3,0.3-0.6,0.4-0.9     c0.7,0.2,1.4,0.3,2.2,0.5c-0.6,1.6-1.1,3.1-1.6,4.5c-0.9,2.6-5.9,3.9-8,1.3c-0.3-0.3-0.5-0.7-0.7-1c-1.2,1.1-2.1,2-3.1,2.8     c-3.6,2.7-7.7,3.5-12,2.7c-5-1-7.7-6.8-5.3-11.5c1.1-2.2,2.8-3.9,4.7-5.3C153.4,135.5,156.5,133.9,159.8,132.2z M160.4,133.9     c-3.3,2.1-6.5,4.1-8.8,7.2c-1.3,1.7-1.9,3.6-1.5,5.8c0.7,3.2,2.7,5.2,5.7,5.2c1.9,0,3.8-0.4,5.4-1.6c1.2-0.9,2.3-2,3.4-3     c0.2-0.2,0.3-0.6,0.2-0.8C163.3,142.6,161.9,138.3,160.4,133.9z"></path>
		</g>
		<g>
			<path class="st0" d="M193.3,145.7c-0.1,0-0.2,0-0.3,0c-0.3-0.1-0.6-0.2-0.9-0.3c0.3-0.2,0.5-0.4,0.8-0.5c0.5-0.2,1-0.2,1.5-0.4     c0.8-0.2,1.3-1.1,1-1.9c-1-2.4-2-4.7-3-7.1c-0.3-0.7-0.7-0.5-1.2-0.3c-4.8,1.5-9.5,3-14.3,4.6c-1.1,0.4-2.3,0.7-3.4,1.1     c-0.3,0.1-0.6,0-0.9,0c0-0.3,0-0.6,0.1-0.8c2.4-5.2,4.9-10.4,7.4-15.7c1.5-3.2,3-6.3,4.6-9.4c0.2-0.3,0.4-0.6,0.7-0.9     c1-0.7,2-1.3,3-1.9c0.9-0.5,1.2-0.5,1.6,0.5c2.4,5.8,4.8,11.6,7.3,17.4c0.4,1.1,0.6,1.1,1.6,0.8c1.8-0.6,3.7-1.2,5.5-1.9     c0.6-0.2,0.9,0,1,0.6c0.1,0.5,0.6,1.1-0.4,1.4c-1.9,0.5-3.7,1.1-5.5,1.7c-0.7,0.2-0.9,0.5-0.6,1.3c1.1,2.5,2,5,3.1,7.5     c0.6,1.4,1.1,1.7,2.6,1.6c0.3,0,0.6-0.1,0.9,0c0.2,0,0.4,0.2,0.7,0.3c-0.2,0.2-0.4,0.4-0.7,0.5c-0.8,0.1-1.6,0.2-2.3,0.3     c-2.9,0.5-5.8,1-8.8,1.5C194,145.6,193.7,145.6,193.3,145.7C193.3,145.7,193.3,145.7,193.3,145.7z M191.1,132.8     c-0.1-0.3-0.2-0.5-0.2-0.6c-1.5-3.7-3.1-7.4-4.7-11.1c-0.1-0.2-0.3-0.4-0.5-0.5c-0.2,0.2-0.4,0.3-0.5,0.6     c-1.4,3.1-2.9,6.2-4.3,9.3c-0.9,2-1.8,4-2.7,5.9c-0.1,0.2-0.1,0.5,0,0.7c0,0.1,0.4,0.1,0.5,0.1c3.9-1.2,7.8-2.4,11.7-3.7     C190.7,133.3,190.9,133,191.1,132.8z"></path>
		</g>
		<g>
			<path class="st0" d="M114.1,138.9c-0.1-0.4-0.2-0.7-0.2-0.9c2.3-1.4,4.5-2.8,6.8-4.1c0.4,1.3,0.8,2.8,1.2,4.4     c0.5-0.9,1-1.7,1.5-2.4c1.7-2.7,4.3-4.2,7.5-4.6c3-0.4,5.2,0.8,6.3,3.7c0.6,1.4,1,2.9,1.4,4.4c1.3,4.4,2.6,8.8,4,13.2     c0.8,2.7,1.2,3.3,4.3,2.8c0.2,0,0.5,0,0.8,0c0.1,0.4,0.3,0.8,0.4,1.3c-4.4,1-8.8,2-13.3,2.9c-0.1-0.4-0.3-0.8-0.4-1.3     c0.7-0.3,1.4-0.5,2.1-0.8c1-0.4,1.2-0.9,1.1-1.9c-0.1-0.6-0.2-1.2-0.4-1.7c-1.5-5.2-3-10.4-4.6-15.6c-0.9-3.2-2.8-4-5.8-2.5     c-1.9,1-3.3,2.5-4.3,4.4c-0.1,0.2-0.1,0.5,0,0.8c1.5,5.4,2.9,10.7,4.4,16.1c0.1,0.3,0.2,0.6,0.3,0.9c0.4,0.9,1,1.3,2,1.2     c0.6-0.1,1.2-0.1,1.8-0.2c0.1,0.4,0.2,0.8,0.4,1.3c-3.7,0.8-7.4,1.6-11.2,2.5c-0.1-0.4-0.2-0.8-0.3-1.2c0.5-0.2,1-0.3,1.4-0.5     c1.1-0.5,1.4-1,1.2-2.2c-0.2-0.8-0.4-1.5-0.6-2.3c-1.4-5.3-2.8-10.7-4.3-16c-0.5-2-1.2-2.4-3.2-1.7     C114.4,138.8,114.3,138.9,114.1,138.9z"></path>
		</g>
		<g>
			<path class="st0" d="M98.5,149.8c0-2.1,0.5-4.5,1.9-6.6c3.4-5.1,10-5.3,13.8-0.5c1.9,2.4,2.7,5.2,3.3,8.2     c0.4,2.4,0.5,4.7-0.2,7.1c-1.3,4.5-4.9,7.1-9.5,6.8c-2.7-0.2-4.7-1.7-6.2-3.9C99.8,158.2,98.5,153.8,98.5,149.8z M113.5,157.9     c-0.4-5.1-1.2-9.5-3.1-13.6c-0.3-0.8-0.8-1.5-1.4-2.1c-1.9-2.2-5-1.8-6.2,0.9c-0.4,1-0.7,2.1-0.7,3.2c0,4.6,1,9,2.9,13.2     c0.5,1.1,1.3,2.2,2.2,3c1.7,1.6,4.4,1,5.3-1.1C113.1,160.2,113.3,158.8,113.5,157.9z"></path>
		</g>
		<g>
			<path class="st0" d="M94.2,144c0.8,2.2,1.5,4.3,2.2,6.5c-0.3,0.2-0.5,0.3-0.7,0.4c-0.9-1-1.7-1.9-2.7-2.7     c-1.8-1.5-3.9-1.5-5.8-0.3c-1.8,1.2-1.8,3.3,0.2,4.3c1,0.5,2.1,0.9,3.2,1.2c2.3,0.7,4.6,1.6,6.4,3.2c2.2,2.1,2.9,5.3,1.6,8     c-1.3,2.7-4,4.1-7.2,3.6c-0.3,0-0.6-0.1-0.9-0.2c-1.3-0.5-2.2-0.1-2.9,1c-0.1,0.1-0.2,0.2-0.3,0.3c0,0,0,0-0.2,0.1     c-0.8-2.5-1.5-4.9-2.3-7.4c0.3-0.1,0.5-0.3,0.7-0.4c0.9,1.1,1.7,2.3,2.7,3.3c1.6,1.6,3.5,2.1,5.7,1.4c2.4-0.8,3.2-3.5,1.4-5.3     c-0.8-0.8-1.9-1.5-2.9-2c-1.3-0.6-2.7-1.1-4.1-1.6c-0.7-0.3-1.4-0.5-2.1-0.9c-3.5-1.8-3.6-6.1-1.5-8.5c1.6-1.8,3.6-2.8,6-2.6     C92.9,145.8,92.8,146,94.2,144z"></path>
		</g>
		<g>
			<path class="st0" d="M51.5,168c0.4,2.3,0.8,4.7,1.3,7c0.2,1,0.8,1.3,2.3,1c0.1,0.2,0.1,0.4,0.2,0.8c-2.5,0.6-5,1.1-7.6,1.7     c-0.3-0.5-0.2-0.7,0.3-0.9c1-0.4,1.3-0.9,1.1-2c-0.9-4.7-1.7-9.4-2.6-14.1c-0.3-1.6-0.6-1.8-2.2-1.5c-0.1-0.2-0.2-0.4-0.2-0.6     c0.1-0.1,0.1-0.2,0.1-0.2c2.6-0.9,5.2-1.8,7.8-2.6c0.6-0.2,1.2-0.3,1.7-0.2c1.5,0,2.7,0.6,3.3,2.1c1,2.4,1.4,4.7-0.2,7.1     c-0.7,1-1.7,1.5-2.8,1.8C53.3,167.4,52.4,167.7,51.5,168z M51.3,167c1.8-0.4,3.1-1.4,3.5-3.2c0.4-1.8,0-3.6-1-5.1     c-0.2-0.4-0.6-0.7-1-0.9c-0.8-0.5-1.6-0.4-2.4,0.1c-0.7,0.5-0.6,1.1-0.4,1.8c0.1,0.7,0.2,1.4,0.4,2.1     C50.6,163.5,51,165.3,51.3,167z"></path>
		</g>
		<g>
			<path class="st0" d="M69.4,154.8c-0.1-0.4-0.1-0.7-0.2-0.9c1-0.5,2-0.9,2.9-1.4c0.9-0.5,1.8-1.2,2.7-1.8c0.2,1.1,0.5,2.2,0.6,3.1     c0.6-1,1.2-2.1,2-3c0.5-0.5,1.2-0.9,1.9-1.1c1.3-0.4,2.2,0.1,2.5,1.4c0.2,0.6,0.2,1.2,0.2,1.8c0,0.9-0.6,1.5-1.4,1.8     c-0.8,0.3-1.5,0.1-2.1-0.4c-1.3-1.1-2-1-2.5,0.7c-0.2,0.5-0.2,1-0.1,1.5c0.7,3.8,1.5,7.6,2.2,11.5c0.2,0.9,0.4,1.9,1.6,2     c0.4,0.1,0.9-0.1,1.4-0.1c0.1,0.3,0.1,0.5,0.2,0.9c-2.9,0.6-5.7,1.3-8.6,1.9c-0.1-0.3-0.2-0.6-0.2-0.8c0.1-0.1,0.1-0.2,0.1-0.2     c1.9-0.6,2.1-1,1.7-3c-0.8-4.2-1.6-8.4-2.4-12.6c0-0.2-0.1-0.5-0.2-0.7c-0.3-0.9-0.9-1.2-1.8-1C69.9,154.7,69.7,154.7,69.4,154.8     z"></path>
		</g>
		<g>
			<path class="st0" d="M70.1,162.5c-2.5,0.8-5,1.5-7.5,2.3c0.1,0.6,0.2,1.3,0.4,1.9c0.5,1.5,0.9,3.1,1.5,4.6     c1.1,2.3,3.3,2.4,4.6,0.2c0.7-1.1,1-2.5,1.4-3.8c0.3-0.1,0.6,0,0.5,0.6c-0.2,1.6-0.5,3.2-1.5,4.6c-1.6,2.4-4.5,2.7-6.6,0.8     c-1.3-1.2-2.1-2.6-2.6-4.3c-1-3.6-1.4-7.1,0.2-10.7c0.7-1.5,1.7-2.6,3.3-3c1.8-0.5,3.3,0,4.3,1.5     C69.2,158.7,69.7,160.5,70.1,162.5z M67.1,162.4c-0.6-1.7-1-3.4-1.8-4.9c-0.6-1.4-2-1.3-2.7,0.1c-0.3,0.6-0.5,1.4-0.5,2.1     c0,1.4,0.1,2.7,0.1,4.2C64,163.4,65.4,162.9,67.1,162.4z"></path>
		</g>
		<g>
			<g>
				<path class="st0" d="M167.7,119c0.3,0,0.6,0.1,0.9,0.2s0.5,0.4,0.7,0.7c0.2,0.3,0.3,0.6,0.3,1c0,0.3-0.1,0.6-0.3,1      c-0.2,0.3-0.4,0.5-0.7,0.7s-0.6,0.3-1,0.3s-0.7-0.1-1-0.3s-0.5-0.4-0.7-0.7c-0.2-0.3-0.3-0.6-0.3-1c0-0.3,0.1-0.7,0.3-1      s0.4-0.5,0.7-0.7S167.4,119,167.7,119z M167.7,119.3c-0.3,0-0.5,0.1-0.8,0.2c-0.3,0.1-0.5,0.3-0.6,0.6s-0.2,0.5-0.2,0.8      c0,0.3,0.1,0.5,0.2,0.8c0.1,0.3,0.3,0.5,0.6,0.6c0.3,0.1,0.5,0.2,0.8,0.2c0.3,0,0.5-0.1,0.8-0.2s0.5-0.3,0.6-0.6      s0.2-0.5,0.2-0.8c0-0.3-0.1-0.5-0.2-0.8c-0.1-0.3-0.3-0.5-0.6-0.6C168.3,119.3,168,119.3,167.7,119.3z M166.9,121.9v-2.1h0.7      c0.2,0,0.4,0,0.5,0.1c0.1,0,0.2,0.1,0.3,0.2c0.1,0.1,0.1,0.2,0.1,0.3c0,0.2-0.1,0.3-0.2,0.4s-0.3,0.2-0.4,0.2      c0.1,0,0.1,0.1,0.2,0.1c0.1,0.1,0.2,0.2,0.3,0.4l0.3,0.4h-0.4l-0.2-0.3c-0.1-0.3-0.3-0.4-0.3-0.5c-0.1,0-0.2-0.1-0.3-0.1h-0.2      v0.9H166.9z M167.2,120.8h0.4c0.2,0,0.3,0,0.4-0.1c0.1-0.1,0.1-0.1,0.1-0.2c0-0.1,0-0.1-0.1-0.2c0,0-0.1-0.1-0.1-0.1      c-0.1,0-0.2,0-0.3,0h-0.4V120.8z"></path>
			</g>
		</g>
	</g>
</g>
</svg>
